HIERARCHY
ROOT Hips
{
	OFFSET 0.00000 0.00000 0.00000
	CHANNELS 6 Xposition Yposition Zposition Zrotation Yrotation Xrotation 
	JOINT LHipJoint
	{
		OFFSET 0 0 0
		CHANNELS 3 Zrotation Yrotation Xrotation
		JOINT LeftUpLeg
		{
			OFFSET 1.48831 -1.59570 0.95625
			CHANNELS 3 Zrotation Yrotation Xrotation
			JOINT LeftLeg
			{
				OFFSET 2.20856 -6.06797 0.00000
				CHANNELS 3 Zrotation Yrotation Xrotation
				JOINT LeftFoot
				{
					OFFSET 2.62924 -7.22379 0.00000
					CHANNELS 3 Zrotation Yrotation Xrotation
					JOINT LeftToeBase
					{
						OFFSET 0.16802 -0.46163 2.41673
						CHANNELS 3 Zrotation Yrotation Xrotation
						End Site
						{
							OFFSET 0.00000 -0.00000 1.23760
						}
					}
				}
			}
		}
	}
	JOINT RHipJoint
	{
		OFFSET 0 0 0
		CHANNELS 3 Zrotation Yrotation Xrotation
		JOINT RightUpLeg
		{
			OFFSET -1.56796 -1.59570 0.95625
			CHANNELS 3 Zrotation Yrotation Xrotation
			JOINT RightLeg
			{
				OFFSET -2.29239 -6.29829 0.00000
				CHANNELS 3 Zrotation Yrotation Xrotation
				JOINT RightFoot
				{
					OFFSET -2.66963 -7.33475 0.00000
					CHANNELS 3 Zrotation Yrotation Xrotation
					JOINT RightToeBase
					{
						OFFSET -0.18185 -0.49964 2.34359
						CHANNELS 3 Zrotation Yrotation Xrotation
						End Site
						{
							OFFSET -0.00000 -0.00000 1.20477
						}
					}
				}
			}
		}
	}
	JOINT LowerBack
	{
		OFFSET 0 0 0
		CHANNELS 3 Zrotation Yrotation Xrotation
		JOINT Spine
		{
			OFFSET 0.03505 2.15832 -0.34324
			CHANNELS 3 Zrotation Yrotation Xrotation
			JOINT Spine1
			{
				OFFSET -0.01089 2.17963 0.04689
				CHANNELS 3 Zrotation Yrotation Xrotation
				JOINT Neck
				{
					OFFSET 0 0 0
					CHANNELS 3 Zrotation Yrotation Xrotation
					JOINT Neck1
					{
						OFFSET 0.04686 1.69404 0.22159
						CHANNELS 3 Zrotation Yrotation Xrotation
						JOINT Head
						{
							OFFSET 0.00265 1.69305 -0.01513
							CHANNELS 3 Zrotation Yrotation Xrotation
							End Site
							{
								OFFSET -0.00415 1.80215 -0.03034
							}
						}
					}
				}
				JOINT LeftShoulder
				{
					OFFSET 0 0 0
					CHANNELS 3 Zrotation Yrotation Xrotation
					JOINT LeftArm
					{
						OFFSET 3.67184 1.11724 -0.19002
						CHANNELS 3 Zrotation Yrotation Xrotation
						JOINT LeftForeArm
						{
							OFFSET 5.17714 -0.00000 -0.00000
							CHANNELS 3 Zrotation Yrotation Xrotation
							JOINT LeftHand
							{
								OFFSET 3.43679 -0.00000 -0.00000
								CHANNELS 3 Zrotation Yrotation Xrotation
								JOINT LeftFingerBase
								{
									OFFSET 0 0 0
									CHANNELS 3 Zrotation Yrotation Xrotation
									JOINT LeftHandIndex1
									{
										OFFSET 0.57312 -0.00000 -0.00000
										CHANNELS 3 Zrotation Yrotation Xrotation
										End Site
										{
											OFFSET 0.46206 -0.00000 -0.00000
										}
									}
								}
								JOINT LThumb
								{
									OFFSET 0 0 0
									CHANNELS 3 Zrotation Yrotation Xrotation
									End Site
									{
										OFFSET 0.46912 -0.00000 0.46912
									}
								}
							}
						}
					}
				}
				JOINT RightShoulder
				{
					OFFSET 0 0 0
					CHANNELS 3 Zrotation Yrotation Xrotation
					JOINT RightArm
					{
						OFFSET -3.59596 0.95831 -0.26050
						CHANNELS 3 Zrotation Yrotation Xrotation
						JOINT RightForeArm
						{
							OFFSET -5.23908 -0.00000 -0.00000
							CHANNELS 3 Zrotation Yrotation Xrotation
							JOINT RightHand
							{
								OFFSET -3.46485 -0.00000 -0.00000
								CHANNELS 3 Zrotation Yrotation Xrotation
								JOINT RightFingerBase
								{
									OFFSET 0 0 0
									CHANNELS 3 Zrotation Yrotation Xrotation
									JOINT RightHandIndex1
									{
										OFFSET -0.60875 -0.00000 -0.00000
										CHANNELS 3 Zrotation Yrotation Xrotation
										End Site
										{
											OFFSET -0.49079 -0.00000 -0.00000
										}
									}
								}
								JOINT RThumb
								{
									OFFSET 0 0 0
									CHANNELS 3 Zrotation Yrotation Xrotation
									End Site
									{
										OFFSET -0.49829 -0.00000 0.49829
									}
								}
							}
						}
					}
				}
			}
		}
	}
}
MOTION
Frames: 6
Frame Time: 0.05
0.00 0.00 0.00 0 0 0 0 0 0 -21 0 0 0 0 0 0 0 0 0 0 0 0 0 0 21 0 0 0 0 0 0 0 0 0 0 0 0 0 0 0 0 0 0 0 0 0 0 -16 0 0 21 0 0 11 0 0 0 -8 0 0 0 0 0 0 0 0 0 0 0 0 0 0 0 0 0 0 0 0 8 0 0 0 0 0 0 0 0 0 0 0 0 0 0 0 0 0
0.00 0.00 0.00 -4.3709 -69.8796 5.0022 0.0000 0.0000 0.0000 -13.5221 3.8709 -8.3057 1.6980 8.2066 23.3433 0.7011 -0.1685 -15.7682 0.0374 -1.2477 -3.4307 0.0000 0.0000 0.0000 25.9960 -3.1128 -13.2669 -2.9281 -10.5777 30.8686 -2.0106 -3.2351 -28.1037 -0.4018 -4.0694 11.2720 7.0288 -0.5443 -1.2787 3.3287 -1.2463 4.1107 -0.5452 -0.4596 4.9332 -0.8920 -4.1414 -9.2959 -1.5646 -6.2878 31.5216 -1.2819 -3.4177 11.8063 0.0000 0.0000 0.0000 -93.2333 2.0642 17.9699 15.1039 -24.2907 -3.2686 -0.0000 0.0000 -18.6478 17.8161 13.3016 4.2288 -7.1250 0.0000 -0.0000 -8.7342 43.7524 0.2711 0.0000 0.0000 0.0000 60.7150 29.7048 70.4481 -86.9432 59.9647 -57.3530 0.0000 0.0000 14.8636 18.5016 -3.4378 -1.1495 7.1250 -0.0000 -0.0000 34.5410 -31.5493 13.6898
0.00 0.00 0.00 -1.3379 -69.6135 3.1020 0.0000 0.0000 0.0000 -14.7349 3.4310 -6.2718 1.0944 6.6481 18.6768 0.6115 0.9489 -15.1453 0.0146 -0.7791 -2.1411 0.0000 0.0000 0.0000 25.1548 -1.7901 -14.0740 -3.0377 -10.7558 31.4606 -2.1033 -3.8508 -28.9880 -0.4329 -4.2222 11.7026 6.8260 -0.5820 -1.5858 3.3977 -1.2996 3.8723 -0.3683 -0.4986 4.8573 -0.6193 -3.7519 -8.7244 -1.8865 -5.7833 32.3272 -1.3932 -3.2167 11.9929 -0.0000 -0.0000 0.0000 -93.0813 2.4044 18.2389 15.2856 -24.5425 -3.3437 -0.0000 0.0000 -18.7618 17.7413 13.3223 4.2164 -7.1250 0.0000 -0.0000 -8.8061 43.7654 0.2705 -0.0000 -0.0000 0.0000 57.2527 36.1301 74.2582 -105.7789 59.0380 -73.6208 0.0000 0.0000 13.4794 22.5025 -3.7191 -1.5392 7.1250 -0.0000 -0.0000 37.1354 -31.3498 15.4883
0.00 0.00 0.00 0.5492 -67.4036 2.6861 0.0000 0.0000 0.0000 -15.1654 1.8105 -4.5811 0.6114 5.0046 13.9216 0.4682 2.3333 -13.9875 0.0140 -0.7653 -2.1033 0.0000 0.0000 0.0000 25.2410 -0.9479 -15.3553 -3.1420 -10.9214 32.0153 -2.3036 -4.9481 -30.7619 -0.5454 -4.7314 13.1442 6.5543 -1.0362 -2.0926 3.5697 -1.9458 3.8283 -0.0849 -0.8267 5.0771 -0.8118 -3.3979 -8.5643 -2.2339 -5.5325 36.3364 -1.6070 -3.2190 13.6730 0.0000 -0.0000 0.0000 -92.2040 0.8258 19.6965 16.2264 -25.8266 -3.7440 -0.0000 0.0000 -19.9870 17.6417 13.0589 4.1101 -7.1250 0.0000 -0.0000 -8.8375 43.4834 0.3335 0.0000 -0.0000 0.0000 52.8222 43.3257 78.2594 -122.2842 55.6699 -87.5525 0.0000 0.0000 13.9092 25.8953 -2.5661 -1.2452 7.1250 -0.0000 -0.0000 38.6346 -29.8852 18.3621
0.00 0.00 0.00 0.0496 -64.7717 3.0194 0.0000 0.0000 0.0000 -12.9729 0.6806 -5.9680 0.7563 5.5541 15.4961 0.4442 0.2660 -12.6904 0.0163 -0.8233 -2.2627 0.0000 0.0000 0.0000 27.2871 -3.3525 -16.0299 -3.0594 -10.7906 31.5769 -2.4138 -4.4368 -31.1828 -0.6845 -5.2895 14.7360 6.8892 -0.2535 -1.5435 2.8363 -0.7600 3.1999 -0.9582 -0.2350 4.1453 4.2458 -0.5106 -6.0744 -2.7339 -1.0449 20.1791 -1.6962 -0.5301 7.1255 0.0000 0.0000 0.0000 -90.7984 0.5620 23.3211 15.1791 -24.3950 -3.2996 -0.0000 0.0000 -19.7988 17.4600 13.1735 4.1001 -7.1250 0.0000 -0.0000 -9.0258 43.5813 0.3188 0.0000 0.0000 0.0000 65.0002 31.9048 75.3861 -72.6972 58.8380 -45.0738 0.0000 -0.0000 -13.8789 32.6059 -8.7153 -5.5362 7.1250 -0.0000 -0.0000 44.7706 -34.0020 16.9649
0.00 0.00 0.00 -0.1084 -63.5462 3.0329 0.0000 0.0000 0.0000 -12.6848 0.1806 -7.0539 0.8677 5.9395 16.6089 0.4080 -0.4255 -11.9245 0.0280 -1.0795 -2.9675 0.0000 0.0000 0.0000 27.5342 -4.1693 -16.3283 -3.0037 -10.7010 31.2781 -2.3819 -4.3314 -30.9424 -0.7357 -5.4799 15.2825 7.1699 0.9950 -0.5271 2.5976 1.0315 2.8547 -1.2915 0.6415 3.3392 6.7019 2.1129 -4.5115 -4.0697 2.6341 8.7773 -2.4460 1.3468 3.8727 -0.0000 0.0000 0.0000 -90.3198 -0.0449 25.6207 15.2582 -24.5046 -3.3323 -0.0000 0.0000 -19.8245 17.0896 11.8971 3.6266 -7.1250 0.0000 -0.0000 -9.0818 42.2320 0.6259 -0.0000 0.0000 0.0000 81.4897 27.6462 47.2742 -13.8211 22.4784 -2.7593 0.0000 -0.0000 -12.1202 33.1428 -13.5352 -8.6887 7.1250 -0.0000 -0.0000 47.7493 -37.9872 11.7936
